<?xml version="1.0" encoding="UTF-8" standalone="no"?>
<!-- Created with Inkscape (http://www.inkscape.org/) -->

<svg
   xmlns:dc="http://purl.org/dc/elements/1.1/"
   xmlns:cc="http://creativecommons.org/ns#"
   xmlns:rdf="http://www.w3.org/1999/02/22-rdf-syntax-ns#"
   xmlns:svg="http://www.w3.org/2000/svg"
   xmlns="http://www.w3.org/2000/svg"
   xmlns:sodipodi="http://sodipodi.sourceforge.net/DTD/sodipodi-0.dtd"
   xmlns:inkscape="http://www.inkscape.org/namespaces/inkscape"
   version="1.1"
   id="svg3732"
   xml:space="preserve"
   width="802.05334"
   height="829.82666"
   viewBox="0 0 802.05334 829.82666"
   sodipodi:docname="female-gymnast-color-publicdomainvectors.org.svg"
   inkscape:version="0.92.4 (5da689c313, 2019-01-14)"><metadata
     id="metadata3738"><rdf:RDF><cc:Work
         rdf:about=""><dc:format>image/svg+xml</dc:format><dc:type
           rdf:resource="http://purl.org/dc/dcmitype/StillImage" /><dc:title></dc:title></cc:Work></rdf:RDF></metadata><defs
     id="defs3736" /><sodipodi:namedview
     pagecolor="#ffffff"
     bordercolor="#666666"
     borderopacity="1"
     objecttolerance="10"
     gridtolerance="10"
     guidetolerance="10"
     inkscape:pageopacity="0"
     inkscape:pageshadow="2"
     inkscape:window-width="1850"
     inkscape:window-height="1016"
     id="namedview3734"
     showgrid="false"
     inkscape:zoom="0.71236717"
     inkscape:cx="-16.58095"
     inkscape:cy="378.09079"
     inkscape:window-x="70"
     inkscape:window-y="27"
     inkscape:window-maximized="1"
     inkscape:current-layer="g3742" /><g
     id="g3740"
     inkscape:groupmode="layer"
     inkscape:label="ink_ext_XXXXXX"
     transform="matrix(1.3333333,0,0,-1.3333333,0,829.82667)"><g
       id="g3742"
       transform="scale(0.1)"><g
         id="g4494"
         transform="matrix(-1,0,0,1,6125.6398,0)"><path
           inkscape:connector-curvature="0"
           id="path4202"
           style="fill:#5345a5;fill-opacity:1;fill-rule:nonzero;stroke:none"
           d="m 1621.58,5498.2 c 1.81,-4.05 4.14,-8.48 6.9,-13.23 l -13.56,137.04 c -16.54,-33.87 -5,-94.17 6.66,-123.81" /><path
           inkscape:connector-curvature="0"
           id="path4204"
           style="fill:#384aa6;fill-opacity:1;fill-rule:nonzero;stroke:none"
           d="m 2075.49,5437.86 c -17.55,37.75 -49.82,39.73 -86.28,40.44 -29.4,0.49 -82.91,-3.09 -108.59,7.27 -25.41,10.34 -40.76,34.36 -62.87,49.68 -64.47,44.93 -33.89,6.1 -111.7,80.59 -22.21,21.2 -59.07,49.09 -84.47,16.53 -2.62,-3.07 -4.8,-6.55 -6.66,-10.36 l 13.56,-137.04 c 30.98,-53.18 118.21,-146.68 184.62,-204.63 l 269.13,128.94 c -1.22,9.53 -2.29,19.04 -6.74,28.58" /><path
           inkscape:connector-curvature="0"
           id="path4206"
           style="fill:#3d61b6;fill-opacity:1;fill-rule:nonzero;stroke:none"
           d="m 2572.39,5164.94 c -23.96,8.31 -48.83,16.93 -75.07,26.84 l -170.91,72.31 192.1,-235.98 53.88,136.83" /><path
           inkscape:connector-curvature="0"
           id="path4208"
           style="fill:#3d57b0;fill-opacity:1;fill-rule:nonzero;stroke:none"
           d="m 2095.1,5372.64 c -9.49,12.28 -11.32,24.47 -12.87,36.64 L 1813.1,5280.34 c 22.11,-19.3 41.91,-34.65 56.56,-43.26 l 186.63,-95.22 76.54,204.07 c -14.93,7.12 -29.16,15.75 -37.73,26.71" /><path
           inkscape:connector-curvature="0"
           id="path4210"
           style="fill:#3e61b6;fill-opacity:1;fill-rule:nonzero;stroke:none"
           d="m 2326.41,5264.09 -157.87,66.8 c -10.52,4.29 -23.35,9.16 -35.71,15.04 l -76.54,-204.07 12.63,-6.44 268.01,-177.58 181.58,70.27 -192.1,235.98" /><path
           inkscape:connector-curvature="0"
           id="path4212"
           style="fill:#3f71c1;fill-opacity:1;fill-rule:nonzero;stroke:none"
           d="m 2682.67,5123.61 c -35.67,15.49 -71.8,27.99 -110.28,41.33 l -53.88,-136.83 164.16,95.5" /><path
           inkscape:connector-curvature="0"
           id="path4214"
           style="fill:#447ac7;fill-opacity:1;fill-rule:nonzero;stroke:none"
           d="m 2336.93,4957.84 40.85,-27.07 c 30.57,-21.11 78.71,-55.43 128.71,-92.49 l 12.02,189.83 -181.58,-70.27" /><path
           inkscape:connector-curvature="0"
           id="path4216"
           style="fill:#4283cc;fill-opacity:1;fill-rule:nonzero;stroke:none"
           d="m 3239.14,4638.19 c -47.22,28.5 -99.71,64.25 -134.08,94.88 -68.64,61.26 -122.63,129.31 -172.97,190.08 l 55.46,-340.6 251.59,55.64" /><path
           inkscape:connector-curvature="0"
           id="path4218"
           style="fill:#427fca;fill-opacity:1;fill-rule:nonzero;stroke:none"
           d="m 2987.55,4582.55 -55.46,340.6 c -42.4,51.17 -82.19,97.2 -125.92,129.61 -42.46,31.43 -82.68,53.11 -123.5,70.85 l -164.16,-95.5 469.04,-445.56" /><path
           inkscape:connector-curvature="0"
           id="path4220"
           style="fill:#4784cd;fill-opacity:1;fill-rule:nonzero;stroke:none"
           d="m 2518.51,5028.11 -12.02,-189.83 c 69.79,-51.72 143.2,-108.78 177.56,-142.84 28.45,-28.23 49.28,-69.45 72.86,-109.94 l 230.64,-2.95 -469.04,445.56" /><path
           inkscape:connector-curvature="0"
           id="path4222"
           style="fill:#4589d0;fill-opacity:1;fill-rule:nonzero;stroke:none"
           d="m 3284.31,4441.52 118.44,102.4 -38.63,27.23 -79.7,41.03 c -13.89,7.53 -29.29,16.35 -45.28,26.01 l -251.59,-55.64 296.76,-141.03" /><path
           inkscape:connector-curvature="0"
           id="path4224"
           style="fill:#5aaae2;fill-opacity:1;fill-rule:nonzero;stroke:none"
           d="m 2756.91,4585.5 c 12.83,-22.03 26.47,-43.87 42.59,-63.25 l 80.47,-78.12 107.58,138.42 -230.64,2.95" /><path
           inkscape:connector-curvature="0"
           id="path4226"
           style="fill:#52a4df;fill-opacity:1;fill-rule:nonzero;stroke:none"
           d="m 2987.55,4582.55 -107.58,-138.42 93.91,-91.17 48.9,-58.39 261.53,146.95 -296.76,141.03" /><path
           inkscape:connector-curvature="0"
           id="path4228"
           style="fill:#407cc8;fill-opacity:1;fill-rule:nonzero;stroke:none"
           d="m 3490.43,4482.12 -87.68,61.8 -118.44,-102.4 z" /><path
           inkscape:connector-curvature="0"
           id="path4230"
           style="fill:#89cef1;fill-opacity:1;fill-rule:nonzero;stroke:none"
           d="m 2940.71,3742.03 c -52.7,-26.37 -95.27,-57.17 -141.02,-139.7 l 38.11,-69.81 102.91,209.51" /><path
           inkscape:connector-curvature="0"
           id="path4232"
           style="fill:#89cef1;fill-opacity:1;fill-rule:nonzero;stroke:none"
           d="m 3022.78,4294.57 119.35,-142.49 142.18,289.44 z" /><path
           inkscape:connector-curvature="0"
           id="path4234"
           style="fill:#4b8ed2;fill-opacity:1;fill-rule:nonzero;stroke:none"
           d="m 3284.31,4441.52 253.83,-743.25 227.71,421.51 z" /><path
           inkscape:connector-curvature="0"
           id="path4236"
           style="fill:#78c3ed;fill-opacity:1;fill-rule:nonzero;stroke:none"
           d="m 3538.14,3698.27 -253.83,743.25 -142.18,-289.44 4.48,-5.35 -0.01,-0.04 c 47.21,-45.52 128.83,-90.93 187.58,-122.4 -57.89,-56.55 -182.51,-167.1 -249.08,-208.54 -58.01,-36.03 -104.15,-53.59 -144.39,-73.72 l -102.91,-209.51 700.34,165.75" /><path
           inkscape:connector-curvature="0"
           id="path4238"
           style="fill:#4379c6;fill-opacity:1;fill-rule:nonzero;stroke:none"
           d="m 3765.85,4119.78 41.24,154.19 c -49.21,32.66 -101.21,60.99 -154.05,93.53 l -162.61,114.62 -206.12,-40.6 481.54,-321.74" /><path
           inkscape:connector-curvature="0"
           id="path4240"
           style="fill:#bee2f6;fill-opacity:1;fill-rule:nonzero;stroke:none"
           d="m 2799.69,3602.33 c -4.55,-8.21 -9.13,-16.89 -13.77,-26.16 -1.76,-3.55 -3.49,-7.28 -5.2,-11.05 l 57.08,-32.6 -38.11,69.81" /><path
           inkscape:connector-curvature="0"
           id="path4242"
           style="fill:#3e65b9;fill-opacity:1;fill-rule:nonzero;stroke:none"
           d="m 3875.24,4223.49 c -21.94,18.43 -44.73,34.95 -68.15,50.48 l -41.24,-154.19 109.39,103.71" /><path
           inkscape:connector-curvature="0"
           id="path4244"
           style="fill:#eeeae4;fill-opacity:1;fill-rule:nonzero;stroke:none"
           d="m 2780.72,3565.12 c -8.84,-19.57 -16.87,-42.13 -24.03,-66.52 l 81.11,33.92 -57.08,32.6" /><path
           inkscape:connector-curvature="0"
           id="path4246"
           style="fill:#3b57b0;fill-opacity:1;fill-rule:nonzero;stroke:none"
           d="m 3964.46,4128.81 c -7.79,10.8 -16.77,22.1 -27.2,34.04 -19.73,22.64 -40.47,42.55 -62.02,60.64 l -109.39,-103.71 198.61,9.03" /><path
           inkscape:connector-curvature="0"
           id="path4248"
           style="fill:#f7dacb;fill-opacity:1;fill-rule:nonzero;stroke:none"
           d="m 2756.69,3498.6 c -19.86,-67.68 -32.99,-148.95 -37.95,-216.46 l 119.06,250.38 -81.11,-33.92" /><path
           inkscape:connector-curvature="0"
           id="path4250"
           style="fill:#3d5bb2;fill-opacity:1;fill-rule:nonzero;stroke:none"
           d="m 4023.91,3655.42 94.84,94.43 -74.71,145.02 c -31.82,92.46 -16.42,146.42 -79.58,233.94 l -198.61,-9.03 258.06,-464.36" /><path
           inkscape:connector-curvature="0"
           id="path4252"
           style="fill:#4d8bd1;fill-opacity:1;fill-rule:nonzero;stroke:none"
           d="m 3538.14,3698.27 485.77,-42.85 -258.06,464.36 z" /><path
           inkscape:connector-curvature="0"
           id="path4254"
           style="fill:#bee0f6;fill-opacity:1;fill-rule:nonzero;stroke:none"
           d="m 3089.61,3190.27 448.53,508 -700.34,-165.75 z" /><path
           inkscape:connector-curvature="0"
           id="path4256"
           style="fill:#394ba7;fill-opacity:1;fill-rule:nonzero;stroke:none"
           d="m 4132.56,3711.3 -11.55,34.18 -2.26,4.37 -94.84,-94.43 108.65,55.88" /><path
           inkscape:connector-curvature="0"
           id="path4258"
           style="fill:#f8f5f0;fill-opacity:1;fill-rule:nonzero;stroke:none"
           d="m 2837.8,3532.52 -119.06,-250.38 c -1.45,-19.54 -2.22,-37.96 -2.25,-54.52 -0.06,-47.03 -1.83,-98.43 2.07,-148.16 l 371.05,110.81 -251.81,342.25" /><path
           inkscape:connector-curvature="0"
           id="path4260"
           style="fill:#66a2dd;fill-opacity:1;fill-rule:nonzero;stroke:none"
           d="m 3538.14,3698.27 161.7,-216.13 c 14.28,0.5 26.68,-1.76 41.12,-11.64 31.38,-21.53 70.13,-97.34 93.71,-137.06 l 189.24,321.98 -485.77,42.85" /><path
           inkscape:connector-curvature="0"
           id="path4262"
           style="fill:#a7d2e9;fill-opacity:1;fill-rule:nonzero;stroke:none"
           d="m 3089.61,3190.27 185.56,31.7 c 22.44,65.66 71.36,128.19 103.98,184.9 19.73,34.45 42.73,81.06 84.57,92.6 l 149.46,-22 c 41.01,-2.65 65.83,3.94 86.66,4.67 l -161.7,216.13 -448.53,-508" /><path
           inkscape:connector-curvature="0"
           id="path4264"
           style="fill:#d9d3d2;fill-opacity:1;fill-rule:nonzero;stroke:none"
           d="m 3636.88,2954.75 c -30.33,17.38 -63,26.1 -93.09,20.62 -59.43,-10.85 -55.75,-47.85 -126.88,-48.08 l -8.65,-8.24 228.62,35.7" /><path
           inkscape:connector-curvature="0"
           id="path4266"
           style="fill:#e3dce1;fill-opacity:1;fill-rule:nonzero;stroke:none"
           d="m 3416.91,2927.29 c -4.08,0 -8.38,0.1 -12.98,0.35 -1.93,0.1 -4.01,0.22 -6.2,0.36 l 10.53,-8.95 8.65,8.24" /><path
           inkscape:connector-curvature="0"
           id="path4268"
           style="fill:#e3dce1;fill-opacity:1;fill-rule:nonzero;stroke:none"
           d="m 3290.15,3019.57 c -16.64,44.4 -25.1,95.24 -26.8,126.67 -1.39,25.6 3.32,50.89 11.82,75.73 l -185.56,-31.7 200.54,-170.7" /><path
           inkscape:connector-curvature="0"
           id="path4270"
           style="fill:#5260b5;fill-opacity:1;fill-rule:nonzero;stroke:none"
           d="m 4208.99,3309.86 78.12,27.09 -52.48,79.91 -42.93,119.49 -31.7,93.82 -136.09,25.25 185.08,-345.56" /><path
           inkscape:connector-curvature="0"
           id="path4272"
           style="fill:#f9be9f;fill-opacity:1;fill-rule:nonzero;stroke:none"
           d="m 2834.13,2731.59 c -12.91,-10.64 -28.92,-19.82 -37.95,-26.19 l -12.2,-9.58 14.4,-28.4 35.75,64.17" /><path
           inkscape:connector-curvature="0"
           id="path4274"
           style="fill:#f9be9f;fill-opacity:1;fill-rule:nonzero;stroke:none"
           d="m 2718.56,3079.46 c 2.48,-31.48 7.23,-62.29 16.15,-90.87 13.34,-42.73 47.13,-122.59 72.44,-158.44 11.35,-15.99 41.68,-44.04 46.3,-63.86 l 236.16,423.98 -371.05,-110.81" /><path
           inkscape:connector-curvature="0"
           id="path4276"
           style="fill:#414ca8;fill-opacity:1;fill-rule:nonzero;stroke:none"
           d="m 4160,3630.17 -27.44,81.13 -108.65,-55.88 z" /><path
           inkscape:connector-curvature="0"
           id="path4278"
           style="fill:#f6834b;fill-opacity:1;fill-rule:nonzero;stroke:none"
           d="m 2783.98,2695.82 -27.18,-21.37 41.58,-7.03 z" /><path
           inkscape:connector-curvature="0"
           id="path4280"
           style="fill:#638fd2;fill-opacity:1;fill-rule:nonzero;stroke:none"
           d="m 4023.91,3655.42 -189.24,-321.98 c 1.3,-2.18 2.56,-4.29 3.76,-6.23 2.43,-3.95 4.9,-7.85 7.37,-11.76 l 363.19,-5.59 -185.08,345.56" /><path
           inkscape:connector-curvature="0"
           id="path4282"
           style="fill:#ba1d24;fill-opacity:1;fill-rule:nonzero;stroke:none"
           d="m 1534.13,1639.57 c 7,-22.2 16.52,-44.03 28.73,-65.06 16.49,-28.4 34.29,-48.55 53.94,-64.56 l -12.77,68.65 -69.9,60.97" /><path
           inkscape:connector-curvature="0"
           id="path4284"
           style="fill:#f0441d;fill-opacity:1;fill-rule:nonzero;stroke:none"
           d="m 2756.8,2674.45 -139.95,-109.97 c -4.16,-3.5 -8.29,-6.95 -12.39,-10.37 l 193.92,113.31 -41.58,7.03" /><path
           inkscape:connector-curvature="0"
           id="path4286"
           style="fill:#f5c2a7;fill-opacity:1;fill-rule:nonzero;stroke:none"
           d="m 2853.45,2766.29 c 0.42,-1.76 0.64,-3.47 0.62,-5.08 -0.18,-10.39 -8.94,-20.55 -19.94,-29.62 l -35.75,-64.17 609.88,251.63 -10.53,8.95 c -13.87,0.88 -31.93,2.35 -43.24,6.8 -28.51,11.29 -49.61,45.51 -64.34,84.77 l -200.54,170.7 -236.16,-423.98" /><path
           inkscape:connector-curvature="0"
           id="path4288"
           style="fill:#a1b6d2;fill-opacity:1;fill-rule:nonzero;stroke:none"
           d="m 3845.8,3315.45 c 35.37,-56.05 74.96,-109.29 116.55,-160.9 l 246.64,155.31 -363.19,5.59" /><path
           inkscape:connector-curvature="0"
           id="path4290"
           style="fill:#e12524;fill-opacity:1;fill-rule:nonzero;stroke:none"
           d="m 1927.58,1997.27 c -41.87,18 -89.23,26.37 -137.65,25.24 -122.21,-2.99 -209.16,-75.03 -247.96,-170.14 l 419.7,15.37 -34.09,129.53" /><path
           inkscape:connector-curvature="0"
           id="path4292"
           style="fill:#f0411e;fill-opacity:1;fill-rule:nonzero;stroke:none"
           d="m 2604.46,2554.11 c -123.45,-102.81 -224.21,-170.32 -311.2,-311.52 l 209.53,-121.17 63.46,94.27 c 38.18,42.36 86.31,73.79 133.11,105.87 l 99.02,345.86 -193.92,-113.31" /><path
           inkscape:connector-curvature="0"
           id="path4294"
           style="fill:#f0421e;fill-opacity:1;fill-rule:nonzero;stroke:none"
           d="m 2798.38,2667.42 -99.02,-345.86 c 2.38,1.64 4.79,3.28 7.16,4.92 51.31,35.23 98.31,78.07 159.4,94.49 l -46.73,-219.11 -7.02,-61.72 137,63.33 -150.79,463.95" /><path
           inkscape:connector-curvature="0"
           id="path4296"
           style="fill:#f58055;fill-opacity:1;fill-rule:nonzero;stroke:none"
           d="m 2798.38,2667.42 610.39,-390.2 c 6.62,4.81 13.14,9.91 19.75,14.81 l -20.26,627.02 -609.88,-251.63" /><path
           inkscape:connector-curvature="0"
           id="path4298"
           style="fill:#f14f1e;fill-opacity:1;fill-rule:nonzero;stroke:none"
           d="m 2949.17,2203.47 102.68,12.94 c 12.21,59.05 24.14,127.66 63.15,164.75 19.93,-103.89 66.77,-88.87 149.48,-101.72 37.74,-5.85 68.72,-28.14 99.6,-23.61 16.22,2.39 30.63,11.19 44.69,21.39 l -610.39,390.2 150.79,-463.95" /><path
           inkscape:connector-curvature="0"
           id="path4300"
           style="fill:#cab2b8;fill-opacity:1;fill-rule:nonzero;stroke:none"
           d="m 3751.17,2779.45 c 3.36,57.74 -41.79,126.41 -99.01,165.7 l 84.51,-216.06 c 6.83,13.14 13.23,27.74 14.5,50.36" /><path
           inkscape:connector-curvature="0"
           id="path4302"
           style="fill:#cab2b8;fill-opacity:1;fill-rule:nonzero;stroke:none"
           d="m 3962.35,3154.55 c 15.33,-19 30.91,-37.78 46.65,-56.4 9.9,-11.73 21.12,-26.09 32.87,-42.23 l 167.12,253.94 -246.64,-155.31" /><path
           inkscape:connector-curvature="0"
           id="path4304"
           style="fill:#b680a2;fill-opacity:1;fill-rule:nonzero;stroke:none"
           d="m 4459.59,2769.53 v 109.55 c 0.02,7.5 -0.15,15.03 -0.47,22.58 l -250.13,408.2 -167.12,-253.94 c 50.3,-69.14 110.16,-170.8 116.77,-236.62 l -13.62,-131.42 309.4,36.88 c 1.82,12.82 3.78,26.62 5.17,44.77" /><path
           inkscape:connector-curvature="0"
           id="path4306"
           style="fill:#7441a4;fill-opacity:1;fill-rule:nonzero;stroke:none"
           d="m 4324.64,3279.83 -37.53,57.12 -78.12,-27.09 z" /><path
           inkscape:connector-curvature="0"
           id="path4308"
           style="fill:#a54aab;fill-opacity:1;fill-rule:nonzero;stroke:none"
           d="m 4459.12,2901.66 c -5.12,119.93 -51.48,244.44 -113.28,345.9 l -21.2,32.27 -115.65,30.03 250.13,-408.2" /><path
           inkscape:connector-curvature="0"
           id="path4310"
           style="fill:#d92225;fill-opacity:1;fill-rule:nonzero;stroke:none"
           d="m 1961.67,1867.74 -419.7,-15.37 c -26.53,-65.04 -30.52,-140.87 -7.84,-212.8 l 69.9,-60.97 357.64,289.14" /><path
           inkscape:connector-curvature="0"
           id="path4312"
           style="fill:#ea724d;fill-opacity:1;fill-rule:nonzero;stroke:none"
           d="m 3428.52,2292.03 c 8.2,6.08 16.51,11.86 25.23,16.32 8.63,4.4 16.38,7.16 23.77,9.18 l 243.57,270.97 c 0.12,0.58 0.25,1.19 0.37,1.76 v 90.13 l -313.2,238.66 20.26,-627.02" /><path
           inkscape:connector-curvature="0"
           id="path4314"
           style="fill:#dda58f;fill-opacity:1;fill-rule:nonzero;stroke:none"
           d="m 3721.46,2680.39 v 15.22 c 3.57,12.67 9.53,22.58 15.21,33.48 l -84.51,216.06 c -5.01,3.45 -10.1,6.65 -15.28,9.6 l -228.62,-35.7 313.2,-238.66" /><path
           inkscape:connector-curvature="0"
           id="path4316"
           style="fill:#ec3021;fill-opacity:1;fill-rule:nonzero;stroke:none"
           d="m 2002.24,1948.77 c -21.61,20.42 -46.93,36.57 -74.66,48.5 l 34.09,-129.53 40.57,81.03" /><path
           inkscape:connector-curvature="0"
           id="path4318"
           style="fill:#ef3720;fill-opacity:1;fill-rule:nonzero;stroke:none"
           d="m 2286.68,2231.76 c -42.26,-71.03 -84.09,-143.01 -116.47,-219.12 -14.59,-34.15 -24.94,-67.12 -39.26,-97.61 l 286.86,80.17 84.98,126.22 -209.53,121.17 c -2.2,-3.57 -4.39,-7.17 -6.58,-10.83" /><path
           inkscape:connector-curvature="0"
           id="path4320"
           style="fill:#ef3720;fill-opacity:1;fill-rule:nonzero;stroke:none"
           d="m 2046.42,1891.41 c -11.91,21.88 -26.85,40.98 -44.18,57.36 l -40.57,-81.03 84.75,23.67" /><path
           inkscape:connector-curvature="0"
           id="path4322"
           style="fill:#ba1d24;fill-opacity:1;fill-rule:nonzero;stroke:none"
           d="m 1616.8,1509.95 c 18.72,-15.26 39.11,-26.75 61.6,-37.95 l -74.37,106.6 12.77,-68.65" /><path
           inkscape:connector-curvature="0"
           id="path4324"
           style="fill:#bb3b52;fill-opacity:1;fill-rule:nonzero;stroke:none"
           d="m 4478.51,2331.07 1.46,20.21 -29.01,288.81 c -2.75,39.77 0.06,60.46 3.46,84.67 l -309.4,-36.88 -0.83,-7.98 c -8.31,-66.2 -8.91,-176.97 -2.05,-249.97 l 319.49,-183.21 16.88,84.35" /><path
           inkscape:connector-curvature="0"
           id="path4326"
           style="fill:#e03621;fill-opacity:1;fill-rule:nonzero;stroke:none"
           d="m 3553.31,2341.02 c 79,44.67 149.68,158.22 167.78,247.48 l -243.57,-270.97 c 23.41,6.36 43.29,5.1 75.79,23.49" /><path
           inkscape:connector-curvature="0"
           id="path4328"
           style="fill:#cb2e27;fill-opacity:1;fill-rule:nonzero;stroke:none"
           d="m 4142.14,2429.93 c 0.64,-6.63 1.31,-12.98 2.05,-18.93 16.64,-106.62 48.51,-206.03 79.02,-308.74 l 4.52,-19.85 233.9,164.31 -319.49,183.21" /><path
           inkscape:connector-curvature="0"
           id="path4330"
           style="fill:#e82e22;fill-opacity:1;fill-rule:nonzero;stroke:none"
           d="m 2068.9,1833.38 c -5.31,21.14 -12.93,40.48 -22.48,58.03 l -84.75,-23.67 120.68,-319.4 14.62,9.5 c 26.42,24.7 71.94,93.54 95.65,126.17 l 190,258.94 35.19,52.25 -286.86,-80.17 c -14.15,-30.06 -32.17,-57.71 -62.05,-81.65" /><path
           inkscape:connector-curvature="0"
           id="path4332"
           style="fill:#da2324;fill-opacity:1;fill-rule:nonzero;stroke:none"
           d="m 1604.03,1578.6 305.47,-145.55 c 15.61,11.14 29.86,21.97 39.82,28.97 l 133.03,86.32 -120.68,319.4 -357.64,-289.14" /><path
           inkscape:connector-curvature="0"
           id="path4334"
           style="fill:#f03a1f;fill-opacity:1;fill-rule:nonzero;stroke:none"
           d="m 2812.17,2140.14 -7.71,-67.72 c -6.9,-68.01 -12.08,-94.33 -15.12,-130.99 l 240.98,-159.99 1.31,22.09 c -2.62,51.89 -6.63,89.48 -9.89,121.27 l -72.57,278.67 -137,-63.33" /><path
           inkscape:connector-curvature="0"
           id="path4336"
           style="fill:#ef3420;fill-opacity:1;fill-rule:nonzero;stroke:none"
           d="m 3021.74,1924.8 c -8.02,78.47 -11.39,121.69 22.43,257.18 2.72,10.86 5.21,22.45 7.68,34.43 l -102.68,-12.94 72.57,-278.67" /><path
           inkscape:connector-curvature="0"
           id="path4338"
           style="fill:#cf1e25;fill-opacity:1;fill-rule:nonzero;stroke:none"
           d="m 1678.4,1472 c 16.09,-8.02 33.24,-15.89 51.65,-24.9 50.2,-24.61 59.67,-60.17 99.82,-56.3 20.11,2 52.01,22.59 79.63,42.25 L 1604.03,1578.6 1678.4,1472" /><path
           inkscape:connector-curvature="0"
           id="path4340"
           style="fill:#ee3121;fill-opacity:1;fill-rule:nonzero;stroke:none"
           d="m 2786.21,1833.38 32.68,-308.69 8.31,-34.39 199.19,224.47 3.93,66.67 -240.98,159.99 c -2.12,-25.34 -3.2,-55.61 -3.13,-108.05" /><path
           inkscape:connector-curvature="0"
           id="path4342"
           style="fill:#a2164e;fill-opacity:1;fill-rule:nonzero;stroke:none"
           d="m 4473.04,2254.52 5.47,76.55 -16.88,-84.35 z" /><path
           inkscape:connector-curvature="0"
           id="path4344"
           style="fill:#9d163c;fill-opacity:1;fill-rule:nonzero;stroke:none"
           d="m 4471.54,2233.59 1.5,20.93 -11.41,-7.8 z" /><path
           inkscape:connector-curvature="0"
           id="path4346"
           style="fill:#ea2922;fill-opacity:1;fill-rule:nonzero;stroke:none"
           d="m 2852.59,1385.37 199.08,25.17 -5.61,24.56 v 69.71 l -20.31,199.14 0.64,10.82 -199.19,-224.47 25.39,-104.93" /><path
           inkscape:connector-curvature="0"
           id="path4348"
           style="fill:#e22524;fill-opacity:1;fill-rule:nonzero;stroke:none"
           d="m 2862.24,1345.47 34.56,-239.05 c 11.12,-32.64 23.13,-52.78 37.54,-66.21 l 197.35,150.63 c -23.27,17.7 -42.03,36.49 -52.06,55.42 -19.12,36.22 -12.23,70.69 -15.32,109.13 l -12.64,55.15 -199.08,-25.17 9.65,-39.9" /><path
           inkscape:connector-curvature="0"
           id="path4350"
           style="fill:#ba1d24;fill-opacity:1;fill-rule:nonzero;stroke:none"
           d="m 4463.47,2019.29 c -2.01,16.95 -3.22,34.59 -3.45,53.13 l 2.71,37.87 -1.1,136.43 -233.9,-164.31 36.32,-159.39 7.76,-24.85 193.56,-113.06 -1.9,234.18" /><path
           inkscape:connector-curvature="0"
           id="path4352"
           style="fill:#aa1c22;fill-opacity:1;fill-rule:nonzero;stroke:none"
           d="m 4462.73,2110.29 8.81,123.3 -9.91,13.13 z" /><path
           inkscape:connector-curvature="0"
           id="path4354"
           style="fill:#aa1c22;fill-opacity:1;fill-rule:nonzero;stroke:none"
           d="m 4527.46,1804.73 c -26.63,68.99 -54.42,133.79 -63.99,214.56 l 1.9,-234.18 62.09,19.62" /><path
           inkscape:connector-curvature="0"
           id="path4356"
           style="fill:#c71e25;fill-opacity:1;fill-rule:nonzero;stroke:none"
           d="m 4271.81,1898.17 32.72,-104.6 14.62,-117.27 146.22,108.81 -193.56,113.06" /><path
           inkscape:connector-curvature="0"
           id="path4358"
           style="fill:#c91e25;fill-opacity:1;fill-rule:nonzero;stroke:none"
           d="m 4319.15,1676.3 8.93,-71.61 137.29,180.42 z" /><path
           inkscape:connector-curvature="0"
           id="path4360"
           style="fill:#ba1d24;fill-opacity:1;fill-rule:nonzero;stroke:none"
           d="m 4328.08,1604.69 5.01,-40.2 c 3.68,-98.97 -37.97,-149.83 -15.17,-209.1 3.27,-8.44 7.82,-16.54 13.3,-24.14 l 134.15,453.86 -137.29,-180.42" /><path
           inkscape:connector-curvature="0"
           id="path4362"
           style="fill:#da1f25;fill-opacity:1;fill-rule:nonzero;stroke:none"
           d="m 3045.25,999.051 c 20.95,-5.961 47.74,-18.18 68.85,-18.801 41.56,-1.41 28.4,21.53 100.51,11.328 37.88,-5.226 156.64,-9.629 170.57,37.592 10.67,36.23 -34.37,55.72 -60.96,64.41 -49.67,16.18 -134.96,53.41 -192.53,97.26 l -197.35,-150.63 c 26.06,-24.27 60,-26.65 110.91,-41.159" /><path
           inkscape:connector-curvature="0"
           id="path4364"
           style="fill:#9d192c;fill-opacity:1;fill-rule:nonzero;stroke:none"
           d="m 4527.46,1804.73 -62.09,-19.62 97.62,-85.56 c -0.38,1.46 -0.75,2.95 -1.15,4.4 -9.92,35.82 -22.03,68.75 -34.38,100.78" /><path
           inkscape:connector-curvature="0"
           id="path4366"
           style="fill:#a31c21;fill-opacity:1;fill-rule:nonzero;stroke:none"
           d="m 4331.22,1331.25 c 12.77,-17.77 30.61,-32.75 49.1,-42.49 5.11,-2.7 11.22,-5.23 18.07,-7.57 l 206.45,45.83 c 7.74,48.81 -17.38,126.83 -22.35,167.77 -7.49,60.58 -4.07,144.26 -19.5,204.76 l -97.62,85.56 -134.15,-453.86" /><path
           inkscape:connector-curvature="0"
           id="path4368"
           style="fill:#a61c22;fill-opacity:1;fill-rule:nonzero;stroke:none"
           d="m 4593.52,1298.62 c 5.98,7.35 9.54,17.1 11.32,28.4 l -206.45,-45.83 c 55.89,-19.01 161.48,-23.89 195.13,17.43" /></g></g></g></svg>